<?xml version="1.0" encoding="iso-8859-1"?>
<!-- Generator: Adobe Illustrator 19.0.0, SVG Export Plug-In . SVG Version: 6.00 Build 0)  -->
<svg version="1.1" id="Capa_1" xmlns="http://www.w3.org/2000/svg" xmlns:xlink="http://www.w3.org/1999/xlink" x="0px" y="0px"
	 viewBox="0 0 510.748 510.748" style="enable-background:new 0 0 510.748 510.748;" xml:space="preserve">
<g transform="matrix(1.25 0 0 -1.25 0 45)">
	<g>
		<g>
			<path style="fill:#3E721D;" d="M318.077-270.199c-91.022,0-91.022-68.267-91.022-68.267v125.156h-45.511v-125.156
				c0,0,0,68.267-91.022,68.267c-45.511,0-79.644,22.756-79.644,22.756s0-102.4,102.4-102.4h68.267c0,0,0-22.756,22.756-22.756
				s22.756,22.756,22.756,22.756h68.267c102.4,0,102.4,102.4,102.4,102.4S363.588-270.199,318.077-270.199"/>
			<path style="fill:#FFAC33;" d="M239.798-277.731c-3.732,0-7.407,1.104-10.547,3.22l-26.431,17.92l-26.419-17.92
				c-3.152-2.116-6.838-3.22-10.57-3.22c-1.638,0-3.265,0.205-4.881,0.649c-5.257,1.399-9.671,5.018-12.06,9.944l-13.926,28.752
				l-31.835-2.321c-0.444-0.023-0.899-0.046-1.343-0.046c-4.983,0-9.785,1.98-13.312,5.507c-3.868,3.891-5.871,9.227-5.484,14.655
				l2.287,31.858L56.57-174.796c-4.915,2.378-8.545,6.804-9.956,12.072c-1.422,5.279-0.478,10.9,2.594,15.428l17.897,26.431
				L49.209-94.446c-3.072,4.528-4.016,10.16-2.594,15.451c1.411,5.257,5.04,9.671,9.956,12.06l28.706,13.926L82.99-21.173
				c-0.387,5.461,1.616,10.809,5.484,14.655c3.516,3.55,8.329,5.518,13.312,5.518c0.444,0,0.899,0,1.343-0.034l31.835-2.287
				l13.926,28.706c2.389,4.915,6.804,8.545,12.06,9.967c1.616,0.421,3.243,0.649,4.881,0.649c3.732,0,7.407-1.115,10.57-3.243
				l26.419-17.909l26.431,17.909c3.14,2.128,6.815,3.243,10.547,3.243c1.638,0,3.3-0.228,4.87-0.649
				c5.291-1.422,9.705-5.052,12.083-9.967l13.938-28.706l31.858,2.287c0.421,0.034,0.887,0.034,1.32,0.034
				c4.972,0,9.762-1.968,13.335-5.518c3.846-3.846,5.848-9.193,5.461-14.655l-2.321-31.835l28.752-13.926
				c4.927-2.389,8.545-6.804,9.944-12.06c1.422-5.291,0.489-10.923-2.571-15.451l-17.92-26.419l17.92-26.431
				c3.061-4.528,3.994-10.149,2.571-15.428c-1.399-5.268-5.018-9.694-9.944-12.072l-28.752-13.938l2.321-31.858
				c0.387-5.427-1.616-10.763-5.461-14.655c-3.573-3.527-8.363-5.507-13.335-5.507c-0.432,0-0.899,0.023-1.32,0.046l-31.858,2.321
				l-13.938-28.752c-2.378-4.927-6.793-8.545-12.083-9.944C243.086-277.526,241.436-277.731,239.798-277.731"/>
			<path style="fill:#732700;" d="M283.944-122.288c0,43.986-35.669,79.644-79.644,79.644c-43.986,0-79.644-35.658-79.644-79.644
				s35.658-79.644,79.644-79.644C248.274-201.932,283.944-166.274,283.944-122.288"/>
		</g>
	</g>
</g>
<g>
</g>
<g>
</g>
<g>
</g>
<g>
</g>
<g>
</g>
<g>
</g>
<g>
</g>
<g>
</g>
<g>
</g>
<g>
</g>
<g>
</g>
<g>
</g>
<g>
</g>
<g>
</g>
<g>
</g>
</svg>
